<?xml version="1.0" standalone="no"?>
<!DOCTYPE svg PUBLIC "-//W3C//DTD SVG 20010904//EN"
 "http://www.w3.org/TR/2001/REC-SVG-20010904/DTD/svg10.dtd">
<svg version="1.0" xmlns="http://www.w3.org/2000/svg"
 width="1024.000000pt" height="534.000000pt" viewBox="0 0 1024.000000 534.000000"
 preserveAspectRatio="xMidYMid meet">

<g transform="translate(0.000000,534.000000) scale(0.100000,-0.100000)"
fill="#000000" stroke="none">
<path d="M2425 5318 c-18 -49 -1013 -2697 -1030 -2741 -7 -16 11 -17 321 -15
l329 3 225 599 c123 329 226 594 228 588 3 -10 -60 -1030 -72 -1149 l-4 -43
353 0 c327 0 353 1 360 18 16 40 1008 2680 1021 2715 l13 37 -327 0 -327 0
-230 -611 c-126 -336 -231 -606 -233 -601 -3 10 62 1069 72 1165 l5 47 -350 0
c-271 0 -351 -3 -354 -12z"/>
<path d="M4245 5298 c-23 -57 -1025 -2726 -1025 -2732 0 -4 147 -5 326 -4
l326 3 128 340 c271 722 899 2391 905 2408 7 16 -12 17 -319 17 l-327 0 -14
-32z"/>
<path d="M5000 5273 c-12 -32 -242 -650 -512 -1373 -270 -723 -493 -1321 -495
-1328 -4 -10 62 -12 323 -10 l329 3 216 567 c118 312 218 570 220 573 3 3 12
-253 20 -568 l14 -572 460 -5 461 -5 -1786 -482 c-1094 -296 -1826 -489 -1890
-499 -141 -21 -417 -14 -540 14 -204 48 -368 132 -499 256 -326 311 -368 811
-119 1426 28 69 62 148 75 175 l24 50 -32 -35 c-67 -75 -272 -334 -389 -490
-474 -637 -772 -1228 -856 -1695 -26 -147 -24 -362 5 -480 42 -172 141 -335
272 -446 300 -256 681 -375 1090 -340 381 32 701 128 1404 421 887 371 7399
3183 7428 3208 22 20 22 29 -2 37 -12 3 -625 -157 -1488 -391 -807 -218 -1474
-399 -1481 -401 -8 -3 1 32 23 92 19 54 35 104 35 111 0 12 -63 14 -375 14
-206 0 -375 3 -375 8 0 4 55 154 122 335 l123 327 316 0 315 0 96 255 96 255
-315 0 c-248 0 -314 3 -311 13 3 6 52 139 109 294 l104 283 333 2 334 3 84
220 c46 121 84 223 84 227 0 5 -449 8 -997 8 l-998 0 -339 -410 c-186 -226
-340 -410 -342 -410 -2 0 0 10 5 23 113 294 301 789 301 792 0 3 -148 5 -329
5 l-330 0 -21 -57z m1681 -90 c-231 -623 -905 -2410 -912 -2417 -5 -6 -9 34
-9 105 -1 62 -9 384 -19 714 l-18 600 21 25 c46 55 957 1050 961 1050 3 0 -8
-35 -24 -77z"/>
</g>
</svg>
